<mxfile host="app.diagrams.net" agent="Mozilla/5.0 (Windows NT 10.0; Win64; x64) AppleWebKit/537.36 (KHTML, like Gecko) Chrome/131.0.0.0 Safari/537.36 Edg/131.0.0.0" version="26.0.4">
  <diagram name="Página-1" id="y5NAVc2xeaM1P2tufu4E">
    <mxGraphModel dx="1112" dy="471" grid="1" gridSize="10" guides="1" tooltips="1" connect="1" arrows="1" fold="1" page="1" pageScale="1" pageWidth="827" pageHeight="1169" math="0" shadow="0">
      <root>
        <mxCell id="0" />
        <mxCell id="1" parent="0" />
        <mxCell id="FO1UdY6e216xbBTGuPkw-1" value="0.1 -&amp;nbsp;&lt;span style=&quot;color: rgb(80, 250, 123); background-color: rgb(40, 42, 54); font-size: 14px; white-space: pre;&quot;&gt;&lt;font face=&quot;Verdana&quot;&gt;funcValidador() &lt;/font&gt;&lt;/span&gt;&lt;span style=&quot;background-color: transparent; color: light-dark(rgb(0, 0, 0), rgb(255, 255, 255));&quot;&gt;/&amp;nbsp; / Verificar carteiras APTAS&amp;nbsp;&lt;/span&gt;" style="rounded=1;whiteSpace=wrap;html=1;" vertex="1" parent="1">
          <mxGeometry x="70" y="120" width="370" height="70" as="geometry" />
        </mxCell>
        <mxCell id="FO1UdY6e216xbBTGuPkw-2" value="Actor" style="shape=umlActor;verticalLabelPosition=bottom;verticalAlign=top;html=1;outlineConnect=0;" vertex="1" parent="1">
          <mxGeometry x="120" y="20" width="30" height="60" as="geometry" />
        </mxCell>
        <mxCell id="FO1UdY6e216xbBTGuPkw-3" value="" style="endArrow=none;html=1;rounded=0;exitX=0.25;exitY=0;exitDx=0;exitDy=0;entryX=1;entryY=1;entryDx=0;entryDy=0;entryPerimeter=0;" edge="1" parent="1" source="FO1UdY6e216xbBTGuPkw-1" target="FO1UdY6e216xbBTGuPkw-2">
          <mxGeometry width="50" height="50" relative="1" as="geometry">
            <mxPoint x="80" y="140" as="sourcePoint" />
            <mxPoint x="130" y="90" as="targetPoint" />
          </mxGeometry>
        </mxCell>
        <mxCell id="FO1UdY6e216xbBTGuPkw-4" value="0.2 -&amp;nbsp;&lt;span style=&quot;color: rgb(80, 250, 123); background-color: rgb(40, 42, 54); font-family: Consolas, &amp;quot;Courier New&amp;quot;, monospace; font-size: 14px; white-space: pre;&quot;&gt;funcValidaExistenciaArquivo()&lt;/span&gt;&lt;span style=&quot;background-color: transparent; color: light-dark(rgb(0, 0, 0), rgb(255, 255, 255));&quot;&gt;/&amp;nbsp; / Valida todo caminho do arquivo e cria a partir de qualquer parte caso não exista&amp;nbsp;&lt;/span&gt;" style="rounded=1;whiteSpace=wrap;html=1;" vertex="1" parent="1">
          <mxGeometry x="67.5" y="400" width="375" height="70" as="geometry" />
        </mxCell>
        <mxCell id="FO1UdY6e216xbBTGuPkw-6" value="&lt;h1 style=&quot;margin-top: 0px;&quot;&gt;&lt;font style=&quot;font-size: 18px;&quot;&gt;Est. FOR&lt;/font&gt;&lt;/h1&gt;&lt;p&gt;Estrutura de for para chamar a segunda função&lt;/p&gt;" style="text;html=1;whiteSpace=wrap;overflow=hidden;rounded=0;" vertex="1" parent="1">
          <mxGeometry x="130" y="250" width="250" height="80" as="geometry" />
        </mxCell>
        <mxCell id="FO1UdY6e216xbBTGuPkw-7" value="" style="endArrow=none;dashed=1;html=1;dashPattern=1 3;strokeWidth=2;rounded=0;entryX=0.5;entryY=1;entryDx=0;entryDy=0;" edge="1" parent="1" source="FO1UdY6e216xbBTGuPkw-6" target="FO1UdY6e216xbBTGuPkw-1">
          <mxGeometry width="50" height="50" relative="1" as="geometry">
            <mxPoint x="240" y="280" as="sourcePoint" />
            <mxPoint x="290" y="230" as="targetPoint" />
          </mxGeometry>
        </mxCell>
        <mxCell id="FO1UdY6e216xbBTGuPkw-8" value="" style="endArrow=none;dashed=1;html=1;dashPattern=1 3;strokeWidth=2;rounded=0;entryX=0.5;entryY=1;entryDx=0;entryDy=0;exitX=0.5;exitY=0;exitDx=0;exitDy=0;" edge="1" parent="1" source="FO1UdY6e216xbBTGuPkw-4">
          <mxGeometry width="50" height="50" relative="1" as="geometry">
            <mxPoint x="255" y="370" as="sourcePoint" />
            <mxPoint x="254.5" y="330" as="targetPoint" />
          </mxGeometry>
        </mxCell>
      </root>
    </mxGraphModel>
  </diagram>
</mxfile>
